<svg xmlns="http://www.w3.org/2000/svg" xmlns:svg="http://www.w3.org/2000/svg" id="svg2" width="92" height="92" version="1.1"><metadata id="metadata7"/><g id="layer1" transform="translate(0,-960.36218)"><path id="rect3765" fill="#fff" fill-opacity="1" stroke="none" stroke-width="4" d="m 16,976.375 0,2 0,56 0,1.9872 2,0 56,0 2,0 0,-1.9872 0,-56 0,-2 -2,0 -56,0 z m 4,4 52,0 0,52 -52,0 z" baseline-shift="baseline" color="#000" direction="ltr" display="inline" enable-background="accumulate" font-family="Sans" font-size="medium" font-stretch="normal" font-style="normal" font-variant="normal" font-weight="normal" letter-spacing="normal" overflow="visible" text-anchor="start" text-decoration="none" visibility="visible" word-spacing="normal" writing-mode="lr-tb" style="text-indent:0;text-align:start;line-height:normal;text-transform:none;block-progression:tb;marker:none;-inkscape-font-specification:Sans"/><path id="rect3765-1" fill="#fff" fill-opacity="1" stroke="none" stroke-width="4" d="m 16,1002.3622 0,2.0128 0,30 0,1.9872 2,0 30,0 2,0 0,-1.9872 0,-30 0,-2.0128 -2,0 -30,0 z m 6,6 22,0 0,22 -22,0 z" baseline-shift="baseline" color="#000" direction="ltr" display="inline" enable-background="accumulate" font-family="Sans" font-size="medium" font-stretch="normal" font-style="normal" font-variant="normal" font-weight="normal" letter-spacing="normal" overflow="visible" text-anchor="start" text-decoration="none" visibility="visible" word-spacing="normal" writing-mode="lr-tb" style="text-indent:0;text-align:start;line-height:normal;text-transform:none;block-progression:tb;marker:none;-inkscape-font-specification:Sans"/><path fill="#fff" fill-opacity="1" stroke="#ebebeb" stroke-dashoffset="0" stroke-linecap="butt" stroke-linejoin="miter" stroke-miterlimit="4" stroke-opacity="1" stroke-width="0" d="m 62.02106,990.36218 0,15.16432 -16,-15.16432 z"/><rect id="rect4670" width="15.057" height="7.107" x="-677.654" y="740.442" fill="#fff" fill-opacity="1" stroke="none" transform="matrix(0.70710678,-0.70710678,0.70710678,0.70710678,0,0)"/></g></svg>